<svg width="320" height="105" version="1.1" viewBox="0 0 84.667 27.781" xmlns="http://www.w3.org/2000/svg">
 <g>
  <path d="m52.33 0.048238c-6.853 0-11.263 4.7385-11.263 13.341 0 8.6027 4.4104 12.977 11.263 12.977 4.6659 0 7.6912-2.2233 9.5867-6.0872l-4.52-2.6244c-0.76549 2.0778-2.3328 3.7912-5.0667 3.7912-3.2442 0-5.3951-2.1876-5.3951-6.1973v-4.0822c0-4.0097 2.1508-6.1973 5.3951-6.1973 2.7339 0 4.0828 1.422 4.7389 3.5362l4.775-2.4789c-1.8591-4.0826-4.8481-5.9777-9.5139-5.9777zm-52.309 0.43718v25.443h5.5412v-10.425h9.6594v-4.8851h-9.6594v-5.2122h11.336v-4.9212zm24.46 0-8.3839 25.443h5.6133l1.8228-6.0512h8.4934l1.8222 6.0512h5.7595l-8.2745-25.443zm39.477 0v4.9212h6.8895v20.522h5.5406v-20.522h6.8895v-4.9212zm-36.306 5.0306h0.18222l2.8434 9.6594h-5.8322z" fill="#0cf"/>
  <path d="m53.697 1.4152c-6.853 0-11.263 4.7385-11.263 13.341 0 8.6027 4.4104 12.977 11.263 12.977 4.6659 0 7.6912-2.2233 9.5867-6.0872l-4.52-2.6244c-0.76549 2.0778-2.3328 3.7912-5.0667 3.7912-3.2442 0-5.3951-2.1876-5.3951-6.1973v-4.0822c0-4.0097 2.1508-6.1973 5.3951-6.1973 2.7339 0 4.0828 1.422 4.7389 3.5362l4.775-2.4789c-1.8591-4.0826-4.8481-5.9777-9.5139-5.9777zm-52.309 0.43718v25.443h5.5412v-10.425h9.6594v-4.8851h-9.6594v-5.2122h11.336v-4.9212zm24.46 0-8.3839 25.443h5.6133l1.8228-6.0512h8.4934l1.8222 6.0512h5.7595l-8.2745-25.443zm39.477 0v4.9212h6.8895v20.522h5.5406v-20.522h6.8895v-4.9212zm-36.306 5.0306h0.18222l2.8434 9.6594h-5.8322z" fill="#ff7f2a"/>
  <path d="m53.697 1.4152c-6.853 0-11.263 4.7385-11.263 13.341 0 4.0531 0.97972 7.1665 2.7319 9.327 1.8669 1.5162 4.3015 2.2827 7.1645 2.2827 4.4839 0 7.4494-2.058 9.3564-5.6474l-2.9228-1.6973c-0.7655 2.0778-2.3328 3.7912-5.0667 3.7912-1.9011 0-3.4258-0.75246-4.3632-2.1812-1.5041-0.97258-2.3988-2.7984-2.3988-5.383v-4.0822c0-4.0097 2.1508-6.1973 5.3951-6.1973 2.0175 0 3.2789 0.77628 4.0661 2.0317 0.50954 0.30817 0.92374 0.71396 1.2575 1.2008l4.1903-2.1752c-0.45565-1.0006-0.97974-1.869-1.5792-2.6111-1.6901-1.3515-3.8424-1.9997-6.5678-1.9997zm-52.309 0.43718v24.077h4.1743v-10.425h9.6594v-3.5182h-8.2925v-1.367h-1.367v-5.2122h11.336v-3.5542zm24.46 0-7.9334 24.077h3.7958l1.8228-6.0512h8.4934l0.41182 1.367h0.95513l1.4103 4.6842h4.8044l-7.8299-24.077zm39.477 0v3.5542h5.5225v1.367h1.367v19.155h4.1736v-20.522h6.8895v-3.5542zm-37.673 3.6637h0.18222l0.79627 2.7045 0.38846-1.3376h0.18222l2.8434 9.6594h-5.8322l0.39714-1.367h-1.7641z"/>
 </g>
</svg>
